{
    "asset" : {
        "generator" : "Khronos glTF Blender I/O v1.6.16",
        "version" : "2.0"
    },
    "scene" : 0,
    "scenes" : [
        {
            "name" : "Scene",
            "nodes" : [
                0,
                1,
                2,
                3,
                4,
                5
            ]
        }
    ],
    "nodes" : [
        {
            "name" : "Nitrogen_mesh",
            "translation" : [
                -0.03529287874698639,
                -0.034995947033166885,
                0.03586508333683014
            ]
        },
        {
            "mesh" : 0,
            "name" : "Nitrogen_sticks_mesh",
            "translation" : [
                -0.03529287874698639,
                -0.034995947033166885,
                0.03586508333683014
            ]
        },
        {
            "name" : "Oxygen_mesh",
            "translation" : [
                -0.03529287874698639,
                -0.034995947033166885,
                0.03586508333683014
            ]
        },
        {
            "mesh" : 1,
            "name" : "Oxygen_sticks_mesh",
            "translation" : [
                -0.03529287874698639,
                -0.034995947033166885,
                0.03586508333683014
            ]
        },
        {
            "name" : "Sulfur_mesh",
            "translation" : [
                -0.03529287874698639,
                -0.034995947033166885,
                0.03586508333683014
            ]
        },
        {
            "mesh" : 2,
            "name" : "Sulfur_sticks_mesh",
            "translation" : [
                -0.03529287874698639,
                -0.034995947033166885,
                0.03586508333683014
            ]
        }
    ],
    "meshes" : [
        {
            "name" : "Sticks_Nitrogen",
            "primitives" : [
                {
                    "attributes" : {
                        "POSITION" : 0,
                        "NORMAL" : 1
                    },
                    "indices" : 2
                }
            ]
        },
        {
            "name" : "Sticks_Oxygen",
            "primitives" : [
                {
                    "attributes" : {
                        "POSITION" : 3,
                        "NORMAL" : 4
                    },
                    "indices" : 5
                }
            ]
        },
        {
            "name" : "Sticks_Sulfur",
            "primitives" : [
                {
                    "attributes" : {
                        "POSITION" : 6,
                        "NORMAL" : 7
                    },
                    "indices" : 8
                }
            ]
        }
    ],
    "accessors" : [
        {
            "bufferView" : 0,
            "componentType" : 5126,
            "count" : 10344,
            "max" : [
                56.823184967041016,
                53.82484436035156,
                47.862510681152344
            ],
            "min" : [
                -43.28211975097656,
                -77.18811798095703,
                -56.84256362915039
            ],
            "type" : "VEC3"
        },
        {
            "bufferView" : 1,
            "componentType" : 5126,
            "count" : 10344,
            "type" : "VEC3"
        },
        {
            "bufferView" : 2,
            "componentType" : 5123,
            "count" : 15516,
            "type" : "SCALAR"
        },
        {
            "bufferView" : 3,
            "componentType" : 5126,
            "count" : 23112,
            "max" : [
                56.704734802246094,
                57.4134635925293,
                52.36513900756836
            ],
            "min" : [
                -48.00223159790039,
                -77.5085220336914,
                -57.23109436035156
            ],
            "type" : "VEC3"
        },
        {
            "bufferView" : 4,
            "componentType" : 5126,
            "count" : 23112,
            "type" : "VEC3"
        },
        {
            "bufferView" : 5,
            "componentType" : 5123,
            "count" : 34668,
            "type" : "SCALAR"
        },
        {
            "bufferView" : 6,
            "componentType" : 5126,
            "count" : 6120,
            "max" : [
                44.994850158691406,
                46.41511154174805,
                37.9018440246582
            ],
            "min" : [
                -36.6278190612793,
                -70.09463500976562,
                -42.09933853149414
            ],
            "type" : "VEC3"
        },
        {
            "bufferView" : 7,
            "componentType" : 5126,
            "count" : 6120,
            "type" : "VEC3"
        },
        {
            "bufferView" : 8,
            "componentType" : 5123,
            "count" : 9180,
            "type" : "SCALAR"
        }
    ],
    "bufferViews" : [
        {
            "buffer" : 0,
            "byteLength" : 124128,
            "byteOffset" : 0
        },
        {
            "buffer" : 0,
            "byteLength" : 124128,
            "byteOffset" : 124128
        },
        {
            "buffer" : 0,
            "byteLength" : 31032,
            "byteOffset" : 248256
        },
        {
            "buffer" : 0,
            "byteLength" : 277344,
            "byteOffset" : 279288
        },
        {
            "buffer" : 0,
            "byteLength" : 277344,
            "byteOffset" : 556632
        },
        {
            "buffer" : 0,
            "byteLength" : 69336,
            "byteOffset" : 833976
        },
        {
            "buffer" : 0,
            "byteLength" : 73440,
            "byteOffset" : 903312
        },
        {
            "buffer" : 0,
            "byteLength" : 73440,
            "byteOffset" : 976752
        },
        {
            "buffer" : 0,
            "byteLength" : 18360,
            "byteOffset" : 1050192
        }
    ],
    "buffers" : [
        {
            "byteLength" : 1068552,
            "uri" : "data:application/octet-stream;base64,"
        }
    ]
}
